<svg id="Graphic_elements" data-name="Graphic elements" xmlns="http://www.w3.org/2000/svg" xmlns:xlink="http://www.w3.org/1999/xlink" viewBox="0 0 1200 1200"><defs><style>.cls-1{fill:url(#radial-gradient);}.cls-2{fill:url(#radial-gradient-2);}.cls-3{fill:url(#radial-gradient-3);}</style><radialGradient id="radial-gradient" cx="544.76" cy="-609.31" r="549.91" gradientTransform="matrix(1.13, 0, 0, -1.13, -187.26, -370.76)" gradientUnits="userSpaceOnUse"><stop offset="0" stop-color="#007fff"/><stop offset="0.39" stop-color="#1c8eff"/><stop offset="1" stop-color="#1a4a7a"/></radialGradient><radialGradient id="radial-gradient-2" cx="1068.4" cy="-146.65" r="522.32" gradientTransform="matrix(0.92, 0.55, 0.61, -1.06, -307.31, -238.38)" gradientUnits="userSpaceOnUse"><stop offset="0" stop-color="#b8ff71"/><stop offset="1" stop-color="#6c0"/></radialGradient><radialGradient id="radial-gradient-3" cx="1030.26" cy="511.22" r="479.13" gradientTransform="matrix(0.24, 0.88, 1.13, -0.31, -426.1, -444.3)" gradientUnits="userSpaceOnUse"><stop offset="0" stop-color="#fff" stop-opacity="0.87"/><stop offset="1" stop-color="#fff" stop-opacity="0"/></radialGradient></defs><g id="layer1"><g id="g7821"><path id="path6109" class="cls-1" d="M600,50a546.49,546.49,0,0,0-268.44,70.28s-.14,0-.18,0A551.28,551.28,0,0,0,194.49,229.56C105.1,327.39,50,457.15,50,600c0,303.61,246.48,550,550,550,9.57,0,18.82-.92,28.29-1.4,15.17-.77,30.12-2,44.93-4A548.56,548.56,0,0,0,1018.1,956.7c82-96.06,131.75-220.59,131.75-356.68a548.65,548.65,0,0,0-79-282.87c-71-118-184.72-207-320-245.64A548.41,548.41,0,0,0,600,50Z"/><path id="path6111" class="cls-2" d="M522.15,67.35c-2,0-5.12.33-6.44,2.13s-2.54,4-4,5.38c-.81.85-1.69,3.24-3.94,3.24-1.25,0-5.52-.7-6.45,0-1.69,1.26-4.12,2.51-4.64,4.64-.7,2.8-3.05,2.32-5,4.31-1.11,1.11-3.72,3.17-5.38,3.58a24.46,24.46,0,0,1-6.45,1.1c-1.8,0-4.34-.44-6.07,0-2.88.7-4.39,3.32-6.82,3.94a6.68,6.68,0,0,0-4.31,2.88c-1.4,1.8-4.56,2.83-6.81,2.83-3.43,0-3.61.66-6.11,2.54-1.77,1.33-4.9,1.77-7.15,1.77-3.06,0-7.37.11-10.06,1.44-1.8.92-4.23,1.25-5,3.24-1.26,3.13-2.33,3.5-5.38,5-1.81.88-5.71,2.13-7.18,3.61-1.11,1.1-1.74,5.08-3.25,5.38a23.72,23.72,0,0,0,2.88,2.13c2.21.55,5.08.37,7.55.37,2.94,0,5.56.37,8.58.37,2.61,0,4.2-1.81,6.48-1.81a38,38,0,0,1,8.95.7c2.4.63,4.64,1.44,7.18,1.44a24,24,0,0,0,6.45-.7c2.91-.74,4.64-.59,6.08-2.5a17.17,17.17,0,0,1,3.94-4c1.29-1,6.11-6.11,7.18-6.11,2.69,0,4.64-.81,7.18-1.44,1.73-.44,1.81-4.64,3.58-4.31,1,.22,3.16,2.8,4.31,2.51a8.66,8.66,0,0,1,3.24-.33,2.64,2.64,0,0,1,2.13,2.13c.59,2.4,1.29,2.32,2.51,3.94.59.81,3.57,4.35,3.24,5.75a15.14,15.14,0,0,0-.37,6.45c.48,1.91.55,4,1.44,5.74a41.73,41.73,0,0,1,2.5,5c.55,2.25,1.81,2.21,2.87,4.31,1.26,2.54.63,3.61-.36,6.11-.85,2.1-2.07,4.57-1.44,7.15.15.55.22,1.25.37,1.8.4,1.63.62,2.47,1.07,2.88s1.06.37,2.87.37c2.14,0,5,0,6.11,1.06,1.44,1.44,2.88,2.25,2.88,4.31,0,1.48-.85,5.42-2.18,6.08-.95.48-3.94,3.09-3.94,4.68,0,2,.37,4.23.37,6.08a6.22,6.22,0,0,0,0,1.43c.59,2.4,1.11,5.45,2.14,7.55.84,1.66,2.69,3.1,3.61,5.38.77,2,.84,5,1.76,6.81,1,2,2,3.69,2.88,5.38,1,2,1.62,5.9,3.24,7.52a47.33,47.33,0,0,1,4.31,5.37,58.35,58.35,0,0,0,4.64,5.75c1.32,1.33,2.65,3,4.31,4.68,3.42,3.42,5.49,5.41,9.69,7.51,2.13,1.07,4.64,2.14,6.81,3.24a40.54,40.54,0,0,1,6.44,4.31c2.18,1.62,4.46,4,7.52,3.21,2.69-.67,6.81-.15,9.35-1.44a8.24,8.24,0,0,0,2.51-1.44,2.6,2.6,0,0,0,.7-3.2c-.55-1.14-1.77-3-1.77-4.68,0-2.95-.74-5.56-.74-8.58a22.55,22.55,0,0,1,.37-5.75,13,13,0,0,0,0-5.74c-.62-2.43-.11-4.75-.73-7.19a31.51,31.51,0,0,1-.34-6.81,22.66,22.66,0,0,1,.34-5.75,26.85,26.85,0,0,0,.36-6.81c0-1.88-.33-4,.37-5.38s1.59-4.71,3.57-5.37c1.7-.56,7.56-1.81,7.56-4a23.8,23.8,0,0,0-.74-6.07c-.55-2.29-2.06-4.5-.7-7.18,1.51-3.06,4.53-3.91,6.44-6.45a56.38,56.38,0,0,1,4.65-4.68c1.28-1.25,4.05-2.36,4.67-3.57a14.89,14.89,0,0,0,1.81-5.75c0-1.29.55-5.82-.74-6.44-1.84-.92-3.94-.63-3.94-2.88,0-1.51,1.62-5,1.07-6.11a6.36,6.36,0,0,0-4.64-3.94c-2.25-.55-5.31-1-7.55-1.44-1.37-.26-4.46-.66-5-1.77-.63-1.28-1.25-4.75-2.51-5.37-2-1-4.34-1.11-6.81-1.11-.63,0-8.36-1.84-5.75-2.5s2.54-1.11,3.58-3.21c.62-1.21,1.8-3.24.73-4.67-1.51-2-3.53-2.84-5-4.31-2-2-6.52-2.88-9.31-2.88a3.75,3.75,0,0,1-1.11,0c-1.58-.36-3.06-2-4.27-3.2-1.84-1.84-5.16-2.65-7.55-3.24-1.81-.44-2.91-2-5-2.51s-4.31-.55-6.45-1.07c-2.83-.69-5.85-1.25-8.62-1.8-1-.22-8.32-.74-7.88-2.5.26-1.07,1.66-3.61,3.21-3.61,2.17,0,4.71.44,6.81,0a46,46,0,0,1,8.62-1.07,41.37,41.37,0,0,1,8.25.73c3.35.67,7.07.23,10.39,1.07a43.58,43.58,0,0,0,9.31,1.07c3.83,0,8.29-.37,12.2-.37,6,0,11.34-1.43,17.23-1.43,3.39,0,4.57-2.07,7.15-2.51a5.6,5.6,0,0,0,2.87-1.07c.44-.48.08-1-1.8-1.43-2.25-.56-4.83.22-7.15-.37a33.32,33.32,0,0,0-6.44-1.07c-2.8,0-5.16-.37-7.92-.37a22.44,22.44,0,0,0-5.71,1.11c-2.65.62-5.16,0-7.92,0h-8.58c-3.87,0-7.92-.74-11.49-.74-2.33,0-4.61-.37-6.45-.37-3.65,0-7.92,0-10.76-1.4a31.52,31.52,0,0,0-7.51-2.87c-1.36-.37-4.53-3.94-5.75-3.94Zm228.77,4.27c-4.49,1-9.13,1.47-13.26,2.54-5.23,1.29-8.47,3.69-13.3,2.51-3.35-.85-6.52-1.11-10-1.81,1.14,1.14.59,2.62-.37,3.94a14.69,14.69,0,0,1-3.24,2.88c-.08.07-8.25,1-8.59,1.06-1.95.48-1.17,1.81,0,3.25a10.8,10.8,0,0,0,3.58,2.87c4.45,1.1,10,3.76,14,5.71,1.7.88,2.51,1.54,2.88,2.54s.33,2.36.7,3.94c.77,3.09,1.21,4,3.94,5.38,2.39,1.18,7.73,1.43,10.42,1.43,4.31,0,10.72,2.14,14,3.21,2.73.92,6.81,3.94,8.62,5.74s3.68,3,5.74,5.75a20.18,20.18,0,0,0,7.89,6.45c2.69,1.36,6.92,1.32,8.58,2.17a37.41,37.41,0,0,1,9,6.08c2.5,2.54,4.53,4.9,6.44,6.81,2.51,2.5,3.1,5.27,6.12,7.55a69.28,69.28,0,0,1,7.88,6.45c2.72,2.72,5.12,4.05,7.51,6.44,1.88,1.88,3.76,4.61,6.82,5.38,4.19,1.07,6.85-1.62,10.42-2.5,1.73-.45,8,6.11,9,6.81a20.7,20.7,0,0,1,5,6.44c1,2,4.31,4.68,5.74,6.12a19.77,19.77,0,0,0,6.82,5,5.73,5.73,0,0,0,4.31.37,3.73,3.73,0,0,0,2.5-2.51c.74-3,1.88-4.6,1.07-7.92a8,8,0,0,1,.74-5.71c.88-1.58,2.35-2.43,5-1.1,1.88,1,3.09,4,3.94,5.75,1.18,2.39,2.87,5.56,2.87,9v8.25c0,1.29,15.07,9.69,15.4,10,2,1.95,4.56,3.17,6.81,4.68,2.51,1.66,4.13,3.31,7.55,5a7.35,7.35,0,0,1,3.57,4.68,9.66,9.66,0,0,1,.37,5.37c-.44,1.77,1.07,5.82.37,8.58-.55,2.18-1,3.91-.74,5.05s1.15,1.62,3.61,2.87c3.54,1.77,4.87,4.57,8.59,6.82,2,1.14,3.49,14.84,4.67,17.2,1.37,2.72,2.88,6.41,2.14,9.32-.77,3.2-2.14,5.56-2.14,9,0,2.44-1.91,5.86-2.5,8.22s-1.66,4.71-2.17,6.48-.41,2.91,2.17,3.94c3.31,1.33,8.76,2.87,12.19,2.87h10.76c1.69,0,3.42,3.43,5,7.15a67.44,67.44,0,0,1,3.25,9.36,11.15,11.15,0,0,0,3.57,6.81c2.69,2.69,6.63,5,7.51,8.58,1,4.13,2.47,5.16.74,8.62-.85,1.69-6.74,3-8.62,3.94-2.69,1.36-7.22,1.84-11.12,2.87a16.69,16.69,0,0,0-5,2.14,4.32,4.32,0,0,0-2.14,3.61c0,3.5,1.4,5,2.87,7.88a50.86,50.86,0,0,0,5,8.25c.34.41.7,1.07,1.07,1.44,2.17,2.17,2,5.6,3.94,8.25,2.77,3.65,4.09,6.74,6.12,10.75s6.26,6.82,8.58,11.46c1.32,2.61,3.61,7.55,3.61,11.12,0,2.84,1.47,5.6,2.13,8.25.52,2.07,2.58,4,4.68,5.38a21.14,21.14,0,0,0,6.08,2.87c3.35.85,7.26.37,10.75.37,3.73,0,6-1.07,9.32-1.07,1.92,0,4.64-5,5.75-6.48,2.39-3.17,3.79-5.12,4.68-8.58a34.13,34.13,0,0,0,1.07-5.75,6.52,6.52,0,0,0-1.81-5.37,4.82,4.82,0,0,1-1.44-3.95,7.52,7.52,0,0,1,1.44-3.94c.52-.7.74-9.28.74-9.68s-4.57-6.08-5.38-7.19c-2-2.68-2.54-6.11-4-8.95-1.51-3.09-1.77-5.78-1.77-9.68v-9c0-4.09-1.87-5.45-3.94-7.51s-2.1-4.06-2.87-7.19c-.55-2.13-.29-3.38.37-4.31s1.88-1.51,3.2-2.5c2.21-1.66,2.88-5.16,2.88-7.88,0-2-.63-4-.7-5.38s.18-2.47,1.76-2.87,3.1.84,4.31,2.13a27.89,27.89,0,0,1,2.51,3.61c1.88,2.47,2.24,3.91,4.68,5.75,3.24,2.43,7.95,3.61,10.75,5a53.2,53.2,0,0,1,7.88,4.64,67.81,67.81,0,0,1,6.82,5.75c1.65,1.65,2.13,4.86,3.57,6.81s3.24,2.54,5.05,4.31,3,5.63,3.94,7.55,1.76,2.87,2.5,2.84,1.66-1,3.21-1.77c1-.52-1.51-8-1.77-9-.7-2.8-4.68-6.78-5.75-8.95s-.77-3.32,0-3.24a6.32,6.32,0,0,1,2.87,1.8c2.36,2.36,4.65,3.17,6.45,6.82.81,1.58,3.79,3.79,5.38,5.37,2.35,2.36,2,4.46,2.87,7.89a1.6,1.6,0,0,0,1.81,1.43,5.21,5.21,0,0,0,2.5-1.43,22,22,0,0,0,3.94-4.64c1.07-2.18,1.4-4.57,2.14-6.82a11.63,11.63,0,0,0-.33-7.92c-.89-2.35-2.32-4.49-3.25-6.81a39.86,39.86,0,0,0-3.24-5.71c-3.42-5.75-6.3-11.2-9.32-17.24a6.36,6.36,0,0,1-.33-.7c-71-118-184.56-207-319.85-245.67ZM400.94,119c-1.81,0-4.68,3.39-5.71,3.94-2.32,1.14-4.75,3.79-6.81,5.38-2.21,1.62-4.06,3.09-6.12,4.64-2.36,1.8-3.94,2.17-7.51,2.17s-3.5,1.55-6.12,2.87c-3.05,1.51-5.89,6.37-7.18,8.95a31.63,31.63,0,0,1-4.27,6.82c-1.66,1.65-4.57,2.65-6.48,3.57-2.25,1.14-1.44,5.6-1.44,7.92,0,1.55-6,1.77-6.45,1.77-.81,0-5.56-7-6.07-7.52-2.54-2.54-1.22-3-5-3.94-2-.51-3.72-.37-4.64-.73s-1.44-1.4-1.44-4c0-2.76,3.32-4,4.68-5.37,1.62-1.62,4.86-2.8,6.45-3.58,2.28-1.17,3.27-3.27,5-5,2.17-2.14,2.5-4.64,2.5-7.88,0-1-5.08-3.1-6.08-3.58-2.28-1.14-3.72-3.64-6.48-5a1.22,1.22,0,0,0-.33,0,550.55,550.55,0,0,0-137,109c-.44,2.25-.66,4.9-1.44,6.48-1.51,3-3.61,3.61-5.74,5.71-1.59,1.62-2.43,4.57-3.58,6.12-1.65,2.21-4.19,3.13-6.11,5s-1.77,6.07-1.77,8.61,1.07,3.32,2.14,3.25,2-1.18,2.87-2.88c1-2.1,6.3-5.34,8.25-6.81,2.69-2,6.48-3.32,7.88-6.12,1.26-2.5,2.47-4.08,3.25-7.18,1-4.09,3.27-5.85,5.37-10a18.11,18.11,0,0,0,4.31,7.52,5,5,0,0,1,1.4,3.94,11.19,11.19,0,0,1-1.4,3.61c-.81,1.62-4.09,4-5.74,5.74-2.07,2-3.17,2-4.31,4.28-1.26,2.46-3.28,3.09-3.94,5.74-.63,2.47-1.88,4.35-2.51,6.82-.88,3.53-.29,5.67-2.87,8.25-1.77,1.73-2.73,5.19-3.24,7.18-.89,3.54-2.47,4.46-4.64,6.08-2.4,1.8-3.28,5.52-3.94,8.25-.93,3.61-5.2,7.47-6.82,10.75-1.44,2.84-2.54,3.24-4,6.12-1,2-1.1,5.26-1.76,7.88a23.79,23.79,0,0,1-4.31,8.25c-.34.44-1.07.7-1.44,1.07-1.92,1.91-3.24,6.33-3.24,9,0,2.44-3.28,6.74-3.94,9.32a40.4,40.4,0,0,1-2.88,8.95c-1.58,3.24-3.13,4.53-4.64,7.55-1.65,3.32-2.65,5.27-3.94,7.89-1.07,2.1-1.07,5.15-1.07,7.88a43.47,43.47,0,0,1-1.43,8.62c-.67,2.61,0,6.26,0,8.95a9.67,9.67,0,0,1-3.24,7.55c-2.32,2.28-3.8,3.64-4.64,7.14a46.33,46.33,0,0,1-3.25,7.55c-1.58,3.13-1.76,5-3.94,7.89a26.23,26.23,0,0,0-3.61,8.61c-.77,3.21-1,5.71-2.5,8.59a34.44,34.44,0,0,0-2.51,7.92,30.64,30.64,0,0,1-2.87,6.81c-1.36,2.76-1.43,5.71-2.13,8.58a44.13,44.13,0,0,0-1.07,10.06c0,2.76-1.44,6.11-1.44,9.32a36.59,36.59,0,0,1-1.07,8.95c-.73,2.83-.37,5.85-.37,9,0,4.46-1.06,8.73-1.06,13.26,0,3.5,1.36,4.09,2.13,7.18.67,2.73.41,5.93,1.07,8.62a14.22,14.22,0,0,1,.74,3.94c1.07,4.31,3.94,5.6,3.94,10a27.08,27.08,0,0,0,1.07,7.89c.7,2.79,0,6.48,0,9.35s-1.11,6.59-1.81,9.32a5.47,5.47,0,0,0,0,1.07c0,3.42-1.07,7.07-1.07,10.75,0,1.07,2.14,6,2.88,7.55,1.4,2.77,2.13,6.74,2.87,9.65a85,85,0,0,0,3.94,12.19c1.29,3.28,1.47,5.82,2.87,9.36.92,2.28-.14,6.59.37,8.58a40.79,40.79,0,0,1,.7,9c0,3.24.7,5.86.7,9a34.31,34.31,0,0,0,1.11,8.62c.81,3.28.33,5.74,1.43,7.88,1.81,3.65,3.5,4.42,4.28,7.51s1.87,6,2.54,8.62c.77,3.1,3.9,5.71,4.64,8.62,1,4,4.64,7.55,6.44,11.83,1.15,2.65,1.18,5.89,2.18,7.88s5.34,3.57,6.81,4.67,1.36,2.18,1.77,3.25a4.14,4.14,0,0,0,3.24,2.5c2.47.59,4.09,3.06,5.75,4.27,2.17,1.66-1.15-5.23-1.81-7.88-.74-3-3.72-6.08-5-8.25-1.21-2-.18-6.78-1.07-8.58a39.94,39.94,0,0,1-3.61-8.62c-.81-3.31-2.39-6.37-3.2-9.69a40.21,40.21,0,0,0-3.61-8.62c-1.73-3.49-3.94-4.78-3.94-9,0-2.68-2-7.33-3.21-9.68s-.73-7.48-.73-10.39-1.07-5.23-1.07-8.25A42.44,42.44,0,0,0,137,632.14c-.73-3-1.76-5.71-1.76-8.95,0-2.4.62-3.21,1.06-2.88s.7,1.92.7,3.94c0,2.25,3,4.57,3.61,6.82.78,3.17,1.33,6.44,2.14,9.69.63,2.54-.7,6.18,0,9,.81,3.17,2.51,5,2.51,8.58,0,3,1.06,5.2,1.06,7.89,0,2,2.4,6,2.88,7.92.77,3,1.4,6.26,2.17,9.31.63,2.58,2.1,5.93,2.87,8.95a23.45,23.45,0,0,0,3.94,7.89c1.55,2.1,1.85,5.89,2.88,7.92,1.58,3.2,2.35,5.08,3.94,8.25a31.51,31.51,0,0,1,2.83,7.14c.78,3,3.36,7.07,4.68,9.69a42.05,42.05,0,0,1,3.24,7.55c.85,3.39,1.66,7.29,3.21,10.39,1.25,2.5,2.5,5,3.61,7.18a27.91,27.91,0,0,0,5.71,7.51c2.61,2.62,6.18,3.87,9.35,5.38s5.64,3.24,6.45,6.48c.7,2.76,2.94,5.9,3.94,7.88,1.43,2.91,4.2,5.64,6.44,7.89,6,6,11,12.3,18.64,16.13a33.3,33.3,0,0,0,7.55,2.87c3.24.81,5.86,1.14,8.58,2.51a17.8,17.8,0,0,0,8.62,1.8c1.29,0,4.57,3,6.82,3.57,2,.52,5.19-.66,7.88,0,3.68.92,4.86-2.35,8.62-1.43,3.46.88,8.76,8.84,11.82,11.12,2.69,2,5.52,4.16,8.62,6.81,2.8,2.44,4.79,3.8,8.25,4.68a27.81,27.81,0,0,1,6.44,2.14c2.33,1.18,6.23.37,9,.37s5.26,3.83,6.81,5.37c3.68,3.69,8,5.75,10.39,8.95,2.13,2.84,3.31,6.56,5.74,9,2.17,2.17,5.27,4.86,7.88,7.52,2.21,2.21,4.72,3.72,5.38,6.44.74,3,4.27,4.31,6.48,5.38a42.15,42.15,0,0,0,7.89,2.54c2,.48,5.23,4.9,6.81,6.08,1.22.92,7.37-.7,9.32-.7,2.54,0,5.63,3.64,7.18,5.71,1.73,2.35,2.84,4.31,6.08,4.31a11.57,11.57,0,0,0,8.25-3.58c1.69-1.69,2.14-6.22,2.14-8.62,0-2.21,5.7,2.84,6.81,4,1.77,1.76,4.05,4.42,5.38,5.74,2.54,2.54,6,5.82,7.18,8.25s.51,5.67,1.8,8.25a38.79,38.79,0,0,0,4.31,6.82c1.81,2.43,1.77,4.38,1.77,8.25,0,3.09.74,5.56.74,8.62,0,2.65-2.29,3.68-2.88,6.07-.73,2.88-1.8,4.9-1.8,8.62,0,2.58-4.64,5.16-4.64,8.95,0,2.87,2.87,7.22,3.57,10.06.81,3.24,1.73,7.36,3.24,10.38,1.73,3.47,4.42,3,5.38,6.82.81,3.28,1,6.63,1.77,9.68s2.54,4.06,3.24,6.82a14.32,14.32,0,0,0,3.94,6.11,18.33,18.33,0,0,0,7.51,4.28c4.61,1.14,6.3,3,8.62,6.11,2.07,2.72,3.1,5.63,6.12,7.88s4.31,2.54,6.44,4.68a7,7,0,0,0,1.44,1.07c2.84,1.91,3.65,4.34,7.18,6.07,2.84,1.44,5.31,3.84,7.88,5.38,3.28,2,5,3.39,8.26,5.05,2.79,1.4,4.93,4.09,7.51,5.38a29,29,0,0,0,8.25,3.2c2.72.55,6.26,1.58,8.62,2.17,3.53.89,7,1.51,9.65,2.88s5.34,4.27,6.81,5.74c2.14,2.1,5.67,3.72,8.25,5,2,1,4.64,2.65,6.49,3.57,3.6,1.81,5,4.42,8.21,6.82,2.47,1.84,4.16,4.16,6.11,6.11,2.4,2.36,3.83,5.6,5.75,7.52a15,15,0,0,1,3.94,7.55c.85,3.46,3.28,5.45,4.64,8.25s5.34,4.34,7.18,6.81,5.27,3.46,7.19,5.38c2.46,2.47,4.67,3.24,6.81,6.08s4.27,3.57,5.71,5c2.06,2.06,5,3,6.81,4,.55.26.92.48,1.44.7,15.17-.77,30-2,44.82-3.94.15-.29.63-.37.74-.73.92-3.76,5.56-6.71,7.51-9.65s5.27-3.43,7.89-4c3.13-.59,4.49-2.69,6.81-5a67.07,67.07,0,0,0,6.81-7.52c2.18-2.87,2.91-4.86,4.68-7.18,2.07-2.76,2.51-5.38,3.94-8.25,1.66-3.31,3.39-5.82,6.08-7.18,3.17-1.55,4.05-3.94,6.81-4.64,3.73-.92,5.35-2.43,8.62-3.24,2.69-.67,7.08-7.07,8.62-8.62a53.82,53.82,0,0,0,6.08-6.82c.85-1.1,1.55-2.57,2.5-3.57.78-1,1.4-1.55,2.18-2.5,1.25-1.59,1.32-6.74,1.77-8.62a47.55,47.55,0,0,1,3.24-8.58c1.25-2.55.84-6,2.13-8.62,1.48-2.91,2.4-5.45,3.61-7.89,1.37-2.72.44-5.93,1.77-8.61s2.25-5.49,3.24-7.52c1.48-2.91.92-3.9,4.68-5.74,2-1,4-4.42,5.71-6.12s2.47-6.33,3.24-7.88c1.36-2.69,4.71-5.08,6.45-6.81,1.4-1.37,2.68-4.46,3.94-5.75,1.54-1.51,1.76-6,2.17-7.51.63-2.47.44-5.38,1.07-7.89.7-2.79-2-4.89-3.24-6.11-2.29-2.28-3.83-5.3-6.82-7.51-2.54-1.92-4.31-2.91-5.71-4.31-1.84-1.84-5.12-2.77-7.55-3.94a14.38,14.38,0,0,0-7.18-1.44h-9.32c-3.24,0-5,.7-7.88.7-3.09,0-5.16.74-8.25.74h-8.58c-2.58,0-4.53-1.44-7.55-1.44s-3.35-2.1-5-4.31c-1.48-2-5.42-2.5-7.88-2.5-3.39,0-6.49-.37-10.43-.37-4.49,0-5.23,1.18-8.58,2.87a24.91,24.91,0,0,0-6.11,4.31c-1.7,1.69-5.49,2.76-7.52,3.57-2.69,1.07-6.08.63-8.62,0a3.21,3.21,0,0,1-2.5-2.87,27.54,27.54,0,0,1,0-4.64c0-3.35,2-4.83,3.94-6.82,1.29-1.32,1.07-5.89,1.07-7.91,0-4,.44-4.5-1.07-7.52-1.29-2.58-3.94-3.57-5.38-5-1.69-1.73-3-4.82-4.64-6.48a29.13,29.13,0,0,1-4.31-6.81c-1.07-2.14-4.12-3.32-6.11-4.28-2.47-1.25-6.23-1.65-8.25-2.17-2.47-.63-6,0-8.58,0h-8.25c-3.06,0-5.42.74-8.26.74-2.13,0-4.19,1.43-7.18,1.43-2.32,0-4.49-3.27-6.08-5.41-2.09-2.76-4.67-3.21-6.48-5s-4.23-2.43-5.71-3.94c-1.8-1.77-6.66-2.65-9-3.24a42.75,42.75,0,0,1-8.59-2.84c-3.27-1.66-3.42-3.24-5-6.48-1.36-2.76-2.51-4.27-2.51-7.15,0-2.28-1.4-6-2.13-7.55a31.62,31.62,0,0,0-1.81-2.87,3.83,3.83,0,0,1,.37-4.31c.52-.85.7-1.25-1.44-1.77-.25-.07-5.23,4.64-5.74,5-2.25,1.7-4,1.36-7.18,2.14-4.72,1.21-5.2,1-9.32-1.07a5.88,5.88,0,0,1-2.51-2.5c-.51-.63-1-1-3.57-.37s-4.57,2.46-6.81,3.61c-2.54,1.25-3.87,1.54-6.12,3.2s-6.44,3.06-8.58,4.68c-2,1.47-7.22-1.29-8.25-1.81-2.69-1.32-2.76-6-3.24-7.88-.63-2.5-1.33-2.8-2.14-2.13a14.17,14.17,0,0,0-2.5,3.94,4.29,4.29,0,0,1-3.61,2.5,6.06,6.06,0,0,1-3.57-.74c-.34-.14.36-7.51.36-8.58,0-1.4-4.53-5.23-5-5.74-1.33-1.37-2.21-1-2.84,0s-1.21,2.72-1.8,3.94c-1.4,2.8-1.48,6.22-2.18,9.68a49.16,49.16,0,0,0-.7,9c0,2.07-1.76,3.58-3.24,5-1.32,1.33-1.54-.55-1.43-3.24s.73-6,.36-7.88c-.58-3-1.76-5.64-2.5-8.62-.63-2.47-.48-4.94-1.44-6.82s-2.46-.29-3.94,1.81-3,4.93-3.57,5.75c-2.32,3.05-7.22,5.89-9,8.25-.81,1.06-5.49,2.91-6.81,3.57-3,1.51-6.82,6-9.32,7.88s-2.14,6.89-2.14,9.69c0,3.5,1.18,3-.73,6.81-.89,1.81-2.32,1.7-3.58,1.07a9.18,9.18,0,0,1-2.5-2.14,12.11,12.11,0,0,0-6.45-3.61c-3.2-.77-5.67.81-8.25,1.44-3.53.88-6.74,2.39-10.05,3.24-2.69.66-6.59-.11-8.95-.7-2-.51-3.94-3.24-5.75-5a43.67,43.67,0,0,1-5.38-6.08c-1.73-2.36-2.32-4-4.67-5.75-2.88-2.17-3.5-.95-5-3.94-1.29-2.58-2.14-4.31-3.57-5.74s-1.11-5-1.11-7.89-.7-6.33-.7-9.32a35.68,35.68,0,0,0-1.07-7.91c-.62-2.51-.37-6.08-.37-8.59,0-2.13-3.57-4.23-5.37-4.67a32.79,32.79,0,0,0-9.69-1.44H330.33a6.75,6.75,0,0,1-4-1.07c-.47,0-3.2-7.55-3.2-8.62,0-3.09-.74-5.56-.74-8.58a33.76,33.76,0,0,0-1.06-7.88c-.59-2.36-.41-5.16-1.07-7.92-.63-2.47,0-6,0-8.58,0-3.13.7-4.61.7-7.92,0-2.21.37-5.27.37-7.88a7.89,7.89,0,0,0-4.65-7.19c-2.43-1.17-5.37-.7-8.25-.7s-4.86.78-7.55,1.44c-3,.77-4.53,4.2-5.74,5.38-2,2-2.21,5.27-2.84,7.88S292,772,292,774.53c0,1.4-3.16,5.41-3.61,7.18-.77,3.17-5.12,5.09-7.14,6.08-3,1.51-8.14-.3-10.43-1.44-1.84-.92-5.12-6.22-6.07-7.51a46.28,46.28,0,0,0-4.68-5.05c-1.92-1.91-3.61-2.91-5.71-5.71A36.92,36.92,0,0,1,250.7,762c-1.36-2.73-1.73-4.53-3.2-7.51-1.37-2.73-3.13-5.57-4.68-8.62-1.7-3.39-1.77-5-3.94-7.19s-2.87-5.41-2.87-8.58-1.07-6.55-1.07-9.68c0-2.91-1.07-5.6-1.07-8.62v-8.62c0-2.65,1.77-4.86,1.77-7.88,0-3.32-.7-4.79-.7-7.89a20.41,20.41,0,0,1,1.8-9.31c1-2.4,3.72-4.24,4.64-6.12a39.75,39.75,0,0,1,3.94-6.08,13.24,13.24,0,0,1,6.82-4.31c2.65-.84,5.41-1.54,7.88-2.17a21.18,21.18,0,0,1,10.75.37,47.38,47.38,0,0,0,11.86,1.44,5.64,5.64,0,0,1,3.95,1.8,4,4,0,0,0,3.94,1.07c2-.48,1.43-6.93,1.43-8.62,0-2-.81-3.09-.73-3.94s1-1.55,2.87-2.51c3.31-1.65,3.79-2.13,7.88-2.13,3.65,0,7,.7,10.43.7,2,0,4.93,2.28,6.81,3.24a10.26,10.26,0,0,0,4.31,1.07,5.39,5.39,0,0,1,3.94,2.5c1.88,2.54,4.6,4.27,6.45,6.12s5.78,3,7.51,3.94c1.29.62,1.07,7.14,1.44,8.58.7,2.8,2.35,5.05,3.61,7.55,1.73,3.5,2.54,7.29,3.94,10.76.95,2.46,1.91,4.89,2.87,6.81,1.51,3,2.36,4.42,5,5.75,2.17,1.06,4.42,1.17,6.81,1.76,2.84.74,5.12-1.8,6.45-3.57,1-1.36.74-3.42.37-5.38a17.78,17.78,0,0,0-1.81-5c-2.1-3.53-1.47-7-2.87-11.12-1.07-3.28-3.35-6.37-5-8.62s-2-6.08-3.24-8.58a35.54,35.54,0,0,1-2.87-7.55c-.67-2.69-.85-5.56-1.44-7.88-.88-3.61,1.21-6.6,3.61-9,1.77-1.77,2-3,2.5-5,2.88-2.87,4.39-6.3,6.08-9.69a17.21,17.21,0,0,0,2.17-8.58c0-1.77,1.62-3.61,3.58-5.38s4.27-3.53,5.37-5c2.1-2.76,4.94-5.56,6.49-8.58,1.25-2.58,3.79-4.5,4.64-7.92.59-2.32.4-5.16,1.07-7.88.77-3,1.43-5.68,2.17-8.59a16,16,0,0,0,0-8.25,41.15,41.15,0,0,0-2.87-7.55c-1.44-2.83-3.39-4.45-5-6.07-1.29-1.29-1.11-6.56-1.11-8.62,0-1.85,5.49-1.81,7.18-1.81,2.62,0,5.71-1.69,7.52-2.13s4-4.46,5-6.45a38.58,38.58,0,0,0,2.88-7.92c.81-3.24-.74-5.75-.74-8.58,0-2.47,2.73-5.12,4.68-6.12,2.8-1.39,4.45-2.5,7.88-2.5s6.11.7,9.32.7c3.83,0,4.68-1.1,6.08-3.94,1.06-2.1.73-6.08.73-8.58a34.23,34.23,0,0,0-.73-7.92c-.41-1.73.36-3.5.73-5-.48-1.92,3.47-7.77,3.94-8.25a25.49,25.49,0,0,1,6.45-5,27,27,0,0,0,6.81-5c2.32-2.36,4.31-5.05,5.75-6.48,2.1-2.1,2.39-4.16,4.31-6.08.88-.92.48,6.56,0,7.51-.7,1.4-.33,2.4.37,3.61s1.84,2.43,2.13,3.58c.48,1.87-.29,3.13-.36,3.94s.36,1.43,2.87,1.43c3.53,0,4.45-1,5.74-3.57,1.4-2.8,3.87-3.09,6.45-5,2-1.44,3.06-3.76,5-5.71,2.32-2.32,3.94-2.84,6.11-5.75,1.88-2.5,4.39-2.54,7.19-3.94,3.9-2,2.09-4.68,6.44-5.75,2.65-.66,4.35-3,5.38-5s-1.81-5.26-1.81-7.55c0-3.64-1-5-2.87-7.51-1-1.36-2-1.62-2.87-1.44a4.2,4.2,0,0,0-2.14,1.44c-1.69,1.69-2.5,6.08-3.57,8.25-1.51,3-.77,4.94-3.24,6.81-1.81,1.37-6.6-3.72-7.88-4.67-2.25-1.7-5.64-2.14-8.62-2.14a7.07,7.07,0,0,0-3.58,1.07c-.81.37-1.62.33-2.87-2.17-1-2-.66-6.16-1.07-7.89a7.53,7.53,0,0,0-1.8-2.87c-.44-.63-.15-1.62,1.43-3.2,2.07-2.1,3.25-1.18,3.25-5.05,0-2.87,2.5-5,4.64-6.08,2.8-1.4,1.29-3.57,5.37-3.57a18.59,18.59,0,0,0,7.55-1.8c1.63-.82,2.58-1.92,2.51-2.88s-1-1.43-2.87-1.43c-3.58,0-5.68,2.13-9.32,2.13-2.29,0-5.9,2.47-7.88,2.87-2.88.59-5.64.34-8.62,1.11s-5.45,3.13-8.62,3.94c-2.76.66-6.23,5.23-6.82,7.51-.88,3.58-3.79,6.71-6.44,9.32s-3.91,2.73-6.45,1.44c-.33-.15,3.87-7.33,4.68-8.95,1.84-3.72,2.43-6,5.71-9.32,2.5-2.5,5.12-4,7.18-6.11,2.43-2.43,3.61-4.94,6.82-5.75s6.92-.33,10.38-.33c3.28,0,5.45-1.44,8.25-1.44,2.62,0,5.56-3.64,7.89-5.37,2.65-2,7-1.92,10-2.55,3.5-.66,4.94-1.58,6.08-3.94,1.29-2.54,4.68-2.13,6.48-3.94a8,8,0,0,0,1.77-3.57,2.92,2.92,0,0,1,2.5-2.17c2.84-.7,5.93-.48,8.25-1.07,2.51-.63,5.71,0,8.25,0,2,0,3.36-.3,3.95-1.07a6.3,6.3,0,0,0,.73-3.57c0-2.8-1.62-5.23-3.57-7.19a25.54,25.54,0,0,1-5.05-7.55c-1.32-2.65-2.54-5.78-3.57-7.88-1.22-2.43-2.17-5.38-3.24-7.51-1.44-2.91-4.42-4.42-6.82-5.05s-5.41-3.24-6.81-4.64a53.33,53.33,0,0,0-5-4.68c-2.39-1.76-3.5-2-4.68-4.31s-2.57-4.08-3.94-6.77c-1-2.1-2.54-3.35-3.57-5.42s-.33-5.63-1.07-7.14c-1-2.07-1.8-5.42-2.87-7.55-1.22-2.4-2-2.88-3.24-5.38-1.59-3.21.37-5-1.77-7.18s-2.17-3.76-4.68-5c-1.54-.78-2.13-1.48-2.87-1.81s-1.51-.11-3.21.74c-.33.15-2.57,5.49-2.87,6.08-1.32,2.61-3.13,3.13-5.74,5.74a23.39,23.39,0,0,0-5,6.48c-1.11,2.14-5.42.7-6.82.34s-1.54-1.62-1.43-3.21a16.64,16.64,0,0,0,0-4.68c-.63-2.46,0-6,0-8.61,0-1.22,1.32-1.26,2.87-1.44s3.42-.55,4.27-1.44c1.11-1.07,1.73-1.65,1.81-2.5s-.41-1.84-1.81-3.21c-1.58-1.62-5.63-.95-7.51-1.43-4-1-5.56-.59-8.62-2.88-2.69-2-4.24-3.72-5-6.81-.52-2-4.79-1.66-6.81-2.17a37.57,37.57,0,0,0-8.95-.7c-2.69,0-4.76,2.17-7.55,2.87-1.55.41-2.88-.26-3.95-.37s-1.91.15-2.5,2.51a32.54,32.54,0,0,1-3.24,7.55c-1,1.91-1.07,5.08-1.07,7.88,0,3.5-.92,4.09,0,7.88.66,2.58-.22,6-.7,7.88-.74,2.95.74,5.71,0,8.62-1,3.72-2,5-.37,8.25,1.51,3,3.06,3.65,3.94,7.19.7,2.83-1.07,5.74-1.07,8.58,0,2.46-3.6,5.41-4.67,6.81-1.29,1.77-2.88,4.75-2.88,7.18,0,2-4.64,3.43-5.7,3.94-2.88,1.44-4.39,3.8-6.12,6.12-1.32,1.77-1.44,6-1.44,8.25,0,2.8-.7,5.6-.7,8.58v8.62c0,2.91.7,4.35,0,7.18s-4,4.5-5.74,5.38-3.28-.11-4.31-1.44a8.79,8.79,0,0,1-1.77-4.31v-9.32c0-2.43-.74-5.3-.74-7.88v-9c0-3.5-1.1-5.12-1.8-7.89-.4-1.73-4.38-4.42-5.71-5.74a26.81,26.81,0,0,0-6.81-4.64,29,29,0,0,1-5.75-4.68c-2.72-2.73-4.42-3.79-5.74-6.45s-4.94-3.24-7.89-3.24a14.34,14.34,0,0,1-8.62-2.5c-1.73-1.29-2.13-5.67-2.13-7.52a47.2,47.2,0,0,0-1.07-9.68,22.5,22.5,0,0,1,.33-8.62c.81-3.24,4.35-5.75,5.38-7.88,1.51-3,6.22-5.12,8.62-7.55s3.57-5.71,6.44-7.89a77.42,77.42,0,0,1,11.5-6.81c2.09-1.07,2.39-4,3.2-5.75,1.51-3,2.43-5.63,4.31-7.51,2.32-2.32,4.35-4.35,6.48-6.45,1.81-1.84,7-1.43,7.88-1.43,1.26,0,3.58,6.77,3.94,7.51.78,1.58,1.37,2.43,2.51,2.87a8.37,8.37,0,0,0,4.31,0c2.87-.59,6.15-2.13,10-3.24,2.17-.59,4.75-4.67,6.81-5.71s2.17-5.78,2.17-8.25c0-3.27-.36-5-.36-7.88,0-1.66-4.76-3.46-5.75-4-1.36-.66-1.51-2.28-1.07-3.94a10.11,10.11,0,0,1,2.14-3.94,16.88,16.88,0,0,1,7.18-3.57c3.09-.78,5.93-.63,8.25-1.81,2.54-1.25,3.21-2.83,5-4.64,2.84-2.87,3.13-4.64,3.94-7.92.63-2.39.3-6.11.74-7.88.73-2.87,3.5-5.6,4.64-7.18.88-1.14,1.25-2.14,2.17-2.84s2.14-1.1,4.31-1.1,3.39.11,4.31.73a8.51,8.51,0,0,1,2.14,3.21c1.07,2.14.37,6.08.37,8.62,0,3.06-2.4,4.16-3.95,5.74s5,4.46,5.71,5c1.15.85.52,2.73-.7,4.68s-3,3.87-3.24,4.31c-.92,1.84-3.31,3.72-4.64,6.45-1.8,3.61-2.17,4.12-7.18,5.37-3.24.81-5.89,3.32-7.88,4.31-1.44.7-1.48,1.7-1.07,2.88a8.82,8.82,0,0,0,1.44,2.87c2.46,2.47,3.53,2.39,6.81,3.2,3.83,1,5.23-.18,7.51,2.88a28.27,28.27,0,0,1,3.24,5c1.44,2.94,3.14,4.71,3.95,7.91.33,1.4,5.67,1.92,7.51,2.88,2.39,1.18,6.15,1.43,8.25,2.5a29.07,29.07,0,0,0,6.81,2.87c2.4.59,3.17,1.77,6.08,2.51,1.77.44,2.84.55,3.61,0s1-1.7,1.44-3.24c.29-1.29-1.11-2.88-2.51-3.94a17.52,17.52,0,0,0-3.24-1.81c-3-1.47-4.16-2-6.11-3.94-1.55-1.55-2.25-2.91-2.14-3.94s1-1.73,2.14-2.87,2.32-.74,3.61,0a18.25,18.25,0,0,1,3.2,2.5c1.25,1.25,2.73.92,4,0a6.69,6.69,0,0,0,2.14-3.2,24.85,24.85,0,0,0,1.06-7.19c0-3.53-2.35-4.16-1.43-7.88.4-1.58-.92-2.76-2.51-3.61s-3.39-1.47-4.31-2.13c-2.87-2.18-4.27-2.1-5.74-5-1-2.1-.33-3.24.73-3.61a6.33,6.33,0,0,1,3.24,0c3.25.81,3.84,2.43,6.08,4.68,2.54,2.54,2.54,3.94,5.38,5.37s2.73,3.58,5.75,3.58c1.91,0,2.13-5.79,2.13-7.52,0-3.06-1.43-5.34-1.43-8.62,0-1.29,3-3.53,3.6-4.64a4.16,4.16,0,0,0,0-4.31,20.44,20.44,0,0,0-2.87-2.87c-2.06-2.06-3.79-2.95-5-5.38-1.43-2.8-4.38-4-6.81-6.44-.37-.74-1.62,0-2.87.33s-2.55.26-3.25-2.51.85-6.22,1.44-8.62c.66-2.68,2.21-3.46,2.87-6.07a6,6,0,0,1,2.14-3.24c.52-.59.63-1.26-.33-3.21-.7-1.4-4.38-2.91-5.75-3.61-2.28-1.14-3.72-3-5-4.31s-.7-6.66-.7-8.58a3.65,3.65,0,0,0-1.81-3.24c-1.1-.63-2.39-.85-3.57-1.44-2.06-1-4.42-1.07-7.51-1.07a43.9,43.9,0,0,1-8.62-1.06c-2.65-.67-6.12.62-7.89,1.06-2.5.63-6,0-8.61,0-2.95,0-4-1.06-6.82-1.8-1.8-.44-6,3.2-7.51,3.94s-2.21.22-2.51-1.07a19,19,0,0,1-.36-4.31v-8.58c0-1.21-.89-1.88-2.18-2.17a18.18,18.18,0,0,0-3.94-.33Zm310.9,34.77A4.33,4.33,0,0,0,708.6,157c-.48,1.91-.7,4.64-1.07,6.08-.11.47-7.11-.89-11.12.73a58.17,58.17,0,0,1-5.75,2.14c-2.17.55-1.51,2.1-1.07,3.94.59,2.28,7,2.73,8.95,3.24,1.4.33,3.25,2.84,4.68,4.31s3.87,2.43,5.38,3.57c1.18.89,2.39,3.5,3.94,5s4.35,2.36,6.45,2.88c2.58.66,4.16-.7,6.81-.7,2.17,0,4.09,1.06,6.48,1.06s4.2-1.06,6.45-1.06c1.8,0,2.58-2.95,3.57-4.31,1.33-1.77,1.44-4.53,1.44-6.82a24.07,24.07,0,0,0-1.07-5.74c-.44-1.81-4-2.73-5-4.64-1.21-2.44-1.29-3-3.94-5.05a47.62,47.62,0,0,0-6.48-3.57,32,32,0,0,1-5.38-3.24,7.75,7.75,0,0,0-4.64-1.07h-3.94a2.7,2.7,0,0,0-1.44,0ZM838,200c-2.28.29-2.84,3.79-2.84,6.81s-4.12,5.86-5.37,6.82c-1.81,1.32,7.14,4.86,7.88,5,3,.77,5.52,3.35,8.58,3.94,2.21.44,5.89,2.87,8.62,4,1.58.63,2.06,2.91,2.5,5.38a41.82,41.82,0,0,1,.74,6.45,38.89,38.89,0,0,0,.7,9.32c.77,3.05,1.62,4.23.74,7.88a22.46,22.46,0,0,0-.74,4.31,4.09,4.09,0,0,0,1.44,3.57c2.35,2.36,9,1.11,11.82,3.94a111.75,111.75,0,0,1,8.25,8.62c1.66,2-.15,5.6,2.17,7.88,1.59,1.59,6.82,1.88,8.58,1.44,1.26-.3,1.88-7.4,2.18-8.58.37-1.51,2.58-2.29,5-2.54a14.79,14.79,0,0,1,6.44.73c2.18,1.07,2.4,4.46,1.81,6.82a4.22,4.22,0,0,0,.7,3.94,9.63,9.63,0,0,0,3.24,2.5c2.36,1.18,5.52.78,7.18.37,2.62-.66,3.79-4.38,5-6.81a18.6,18.6,0,0,0,1.44-3.94,3.5,3.5,0,0,1,2.13-2.88c2.43-1.21,3.54-3.09,2.88-5.74a39.72,39.72,0,0,0-2.88-8.25c-1.77-3.54-5.49-4.83-8.58-7.15-2.39-1.8-2.14-2.43-2.87-5.41-.52-2-3.94-3.54-6.12-4.64-2-1-3.31-4.53-5.71-5.75-3.53-1.77-6.88-2.28-10.05-4.64s-6.08-3.32-9.32-5.75a88.24,88.24,0,0,1-8.62-7.88c-2.65-2.65-5.23-3.83-7.18-5.74-2.36-2.4-6.08-3.76-8.58-5.05-3.24-1.62-5.09-3.54-7.88-4.64a60.77,60.77,0,0,0-9-2.51,15.1,15.1,0,0,1-3.21-1.8,2.71,2.71,0,0,0-1.1,0ZM524.66,370.37c-1,1-2.73.11-3.94.7s-1.88,3.13-2.18,4.31c-.47,1.91-.29,3.72-.69,5.74-.45,2.29.22,5.93.69,7.89.41,1.54-2.06,3.46-2.83,5a28.83,28.83,0,0,1-2.87,4.31c-1.26,1.66-1.07,5.23-1.44,7.19-.48,2.32-.59,4.09-1.07,6.11a17.8,17.8,0,0,0-.37,4.64c0,1.25,2.95,2,3.94,2.51s1.62-.74,2.14-2.14,1-3.09,1.8-3.94c1.74-1.73,2.62-2.51,5-2.51,1.59,0,3.25-.36,5-.36a12.61,12.61,0,0,1,3.94,1.06,14.29,14.29,0,0,1,3.94,2.88c1.37,1.4,1,3,3.21,3.57,1.84.48,3,1.44,5,1.44h10.76c2.17,0,2.13-1.37,2.13-3.58a18.66,18.66,0,0,1,.74-5c.44-1.8-.4-3-.74-4.3-.36-1.59-2.94-3.32-3.94-4.31-2.21-2.25-4.67-1.85-5.37-4.68-.34-1.29.36-3.24.36-4.64s.34-2.77.34-4.31c0-1.84-1.15-2.65-1.77-3.94-.81-1.59-2.29-1.44-3.94-1.44a29.64,29.64,0,0,1-5.38-.74c-1.77-.33-2.76-.22-3.94-1.43s-2.54-1.11-2.54-3.21c0-1.1-.74-2.32-1.07-3.61a4,4,0,0,0-1.77-2.83c-.7-.52-2.5-.37-3.24-.37ZM1057.84,384c-1.84.25-1.87,6.92-3.94,8.95-1.87,1.91-3.83,2.39-5.37,3.94-2.66,2.69-5.86,5.15-8.62,7.92-2.32,2.32-2.73,7-3.94,10-.85,2.17,0,6.92,0,9.31,0,3.06-3.5,7.85-4.64,10.76-.74,1.84-1.37,2.69-2.51,3.24s-2.69.59-4.68,1.07a40.22,40.22,0,0,0-8.62,2.87c-2,1-3.61,5.45-4.64,7.55s-.48,6.23-1.06,8.58a27.9,27.9,0,0,0,0,11.86c.58,3,1.06,5.71,1.76,8.59.78,3.13-.55,5.89-1.06,7.88-.74,3-1.81,5.74-2.51,8.62s2.87,5.85,2.87,9c0,3.28.85,6.3,0,9.65-.55,2.21.48,5.42,1.77,8.62s3.1,6.56,3.61,8.62c.33,1.4-7.44,10.87-8.25,12.89a63.12,63.12,0,0,1-4.31,9c-1.77,3,.37,6.26.37,9.32s.7,6.67.7,10c0,4.13.74,8.4.74,12.53,0,3.72-3.8,9-4.68,12.56a16.46,16.46,0,0,0,1.43,10.38c1,2.07-.84,7.3-1.43,9.69-1,4,1.07,8.58,1.07,12.56v1.8c0,5.53,4.53,12.93,5.74,19,.67,3.32-1.18,5.16-1.8,7.51-.89,3.65,1.07,6.41,1.8,9.32,1.18,4.75.22,8.88-1.8,12.93a7.85,7.85,0,0,0-.7,5.38,28.34,28.34,0,0,0,1.8,5.38c1.37,3.42.15,8.1,1.07,11.82.77,3.17-.37,9-.37,12.56,0,2.61-1,3.83-1.8,5.38s-1.14,3.31-.33,6.44c.18.78.14,1.77.33,2.54.66,2.62,6.19,8.22,8.62,10A6.28,6.28,0,0,1,1017,744a19,19,0,0,1,.37,4.68c0,4.31.48,6.93,3.24,9.69,1.66,1.69,4.94,1.43,6.81,3.94,1.51,2,1.44,7.77,1.44,10.39,0,3.2.07,5,1.07,6.81s2.8,3.54,5,5.75c1,1,1.91,1.54,2.87,2.5,2.25,2.25,2.65,6.26,5,8.62a38.26,38.26,0,0,0,8.62,6.44c1.8.93,3.68.3,5.38-.7a42.69,42.69,0,0,0,4.31-3.24c3.53-2.65,6.15-5.15,7.88-8.62,2.36-4.67,6.48-9.79,7.51-15.06a6.81,6.81,0,0,1,2.18-4.27,24.4,24.4,0,0,1,4.64-2.54c2.91-1.44,5.63-4.61,7.18-7.15,1.69-2.84,4.75-4.75,7.88-3.94a9.34,9.34,0,0,1,5.38,4.27,20.08,20.08,0,0,1,2.87,5.75c.77,3.06-2.32,6.81-3.57,9.32-2.1,4.2-1.14,7.36-3.94,11.12-2.54,3.39-3.8,8.32-5.38,11.49-2.14,4.27-1.62,10.79-2.54,15.4a65.35,65.35,0,0,1-2.84,8.62,39.19,39.19,0,0,0-2.54,11.49c0,4-4.2,7.33-6.08,11.08-2.24,4.5-3.9,9.07-5.74,13.63a78.09,78.09,0,0,1-5,10.43,33,33,0,0,0-3.94,9c-.74,2.87-2.62,5.23-3.94,7.88s-1.51,5.16-2.88,7.92c-2.57,5.12-8.28,14-12.56,18.27-3.68,3.68-8.47,8.73-10.38,12.56-1.26,2.5-2.07,4.45-3.24,6.81-1.74,3.43-4,7.33-6.08,11.46-1.47,2.9-4,4.34-5.38,7.18a29.53,29.53,0,0,0-2.54,5.74c82-96.09,132-220.7,132-356.83A547.16,547.16,0,0,0,1113.06,403c-2.4.19-6.63,1.07-9.32,1.07-1.73,0-3,1.33-3.94,2.87a19,19,0,0,0-1.81,4.68,22.29,22.29,0,0,0,5,19.34c1.44,1.47,2.32,2.87,2.13,3.94s-1.25,1.8-3.57,1.8a9.25,9.25,0,0,1-5-1.06,18.91,18.91,0,0,1-2.84-2.88,29.75,29.75,0,0,0-7.92-6.11c-2.87-1.4-5.3-2.65-7.88-3.94-1.84-.92-3.39-6.08-4.31-7.89a19.58,19.58,0,0,1-2.5-8.95c0-2.28-2.29-5.7-3.21-7.55-1.1-2.21-2.65-4.56-3.94-7.14a17.5,17.5,0,0,0-5.38-6.82c-.33-.25-.48-.4-.73-.36ZM378,682.71a5.31,5.31,0,0,0-1.43,1.1c-1.59,1.59-1.22,1.25-3.95-.37.59,0,7.52,8.29,9,10.76.7,1.14,2.65,1.51,4.64,1.44a27.36,27.36,0,0,0,5-.74c2.54-.48,3.21-2,2.87-3.57a6.42,6.42,0,0,0-2.87-4c-3.09-1.54-5.23-2.76-8.58-3.57C379.87,683.11,379.21,682.19,378,682.71Zm6.48,24c-2.13.37-5.34,1.73-6.48,2.87-.88.89-.14,2.58.74,4.27s2.1,3.17,2.5,4c1.11,2.18,7.63,2.84,10,2.84,2.06,0,3-.92,3.24-2.14a9,9,0,0,0-.36-3.94c-.56-2.25-3.32-4.42-4.65-5.74s-.14-.3-3.24-2.14a4,4,0,0,0-1.77,0ZM355.41,726.1c-4.08,0-8,.14-11.82,3.24-4.71,3.79-10.42,10.64-13.63,11.82.7,1.77,1.26,3.32,2.51,3.94a5.58,5.58,0,0,0,5-.33c3.13-1.58,5.23-2.25,7.88-3.61s4.9-2.5,7.92-2.5c3.83,0,6.37,1.32,9.65,2.17a32.53,32.53,0,0,1,7.18,2.87c2.91,1.44,5.56,2.69,7.88,5s6.45,3.39,8.62,5,6.37,3.5,8.62,5.75c1.44,1.43,4.53,4.6,6.81,5.74a8.09,8.09,0,0,0,6.45.33,22,22,0,0,1,6.81-1.4c2,0,5.42.19,8.59.33s6,.15,7.18-1.06a8.23,8.23,0,0,0,2.13-2.88c.37-1.06,0-2-2.13-2.5-3-.77-5.71-1.69-8.95-2.51-4.53-1.14-3.1-3.16-6.82-5a38.41,38.41,0,0,0-10.42-4c-3.2-.78-8.1-1.29-10.75-3.94-2.36-2.36-3.65-6.67-6.08-7.89-4.27-2.13-7.55-5.08-12.56-6.07s-11.09-2.54-16.13-2.54c-1.48,0-2.58,0-3.95,0Zm95.73,32.63a8.32,8.32,0,0,0-2.5.37c-3.32.84-12.05.07-12.56,1.07s-1.29,1.87-1.77,2.87c-1.18,2.32-1,3.06-.37,3.61s1.73.62,2.87,1.77a9,9,0,0,1,1.81,3.24,3,3,0,0,1-1.44,3.57c-.33.18-7.33,3.68-7.18,3.94,1,1.92,1.91,2.54,6.08,2.54a40.54,40.54,0,0,1,9,1.07c2.07.41,6.63,1.55,8.59,1.07,4.67-1.18,8.17-2.39,11.12-5.38,2.5-2.5,2.54-1.36,7.18-2.5,1.59-.41,3.5-.33,4.64-.74s1.81-1.18,1.81-3.2a5.72,5.72,0,0,0-5.38-5c-2.54,0-5.89.11-8.25-1.07-3.24-1.62-3.28-4.38-7.18-5.38-1.81-.44-4-1.54-6.45-1.8ZM492,771.29c-1.15-.26-1.74,1.36-1.81,3.24a17.63,17.63,0,0,0,.74,4.64c.4,1.7,6.26,2.54,8.25,2.54s3.57,0,4.31-.37.48-1.14-.37-2.87c-1.22-2.43-1.92-5.27-4.31-6.44C496.89,771,494.16,771.29,492,771.29Zm32.26,2.5c-.59.45-.92,2-.7,3.61s1,3,3.57,3.58a20.38,20.38,0,0,0,7.89,0c1.32-.34.81-1.4-.34-2.88a14.07,14.07,0,0,0-4-3.57c-1.44-.74-4.28-.74-6.08-.74-.15-.07-.18-.11-.37,0ZM407.05,777.4c-.48,0-1.32.37-1.8.37-.48-.4-5.53-.11-7.88,1.07a7.33,7.33,0,0,0-3.24,2.5c-.48.89-.52,2.14.36,3.95a33.79,33.79,0,0,1,1.44,3.94c.37.84,1.1,1.25,3.24,1.8,3.43.85,6.52,1.92,9.65.37,2.43-1.25,3.61-4.75,3.61-7.55,0-3.46-1-5.34-3.94-6.08a4.26,4.26,0,0,0-1.44-.37Zm132.31,12.89c-1.85.41-1.52,3.17.36,5.05,2.25,2.21,4.57,1.47,6.08.7,1.66-.81,1-2.21-.33-3.24a13.81,13.81,0,0,0-3.61-1.77,4.44,4.44,0,0,0-2.5-.74Zm11.12,15.81c-1,.73-3.94,3.16-3.94,4.64s1.43,1.4,3.2,1.06a20.78,20.78,0,0,0,3.94-1.06c1.7-.81-1.32-3.43-2.83-4.64C550.77,806.1,550.55,806,550.48,806.1ZM552.61,819c.08.11.3.62.37.73a1.17,1.17,0,0,0,.37-.73A1.14,1.14,0,0,0,552.61,819Zm.37.73c-1.25,1.07-5.23,3.76-5.74,5.71-.41,1.7,7-.26,7.18-.33C556.08,824.25,554.09,821.45,553,819.72Zm15.07,3.94c-.19,1.7-1.95,6.34-.37,7.52,2.36,1.77,3.42,1.25,3.94.37a3.59,3.59,0,0,0,0-3.24A17,17,0,0,0,568.05,823.66Z"/><path id="path3339" class="cls-3" d="M1058.25,395.19s-143.94-14-243,57.65S662.12,681.68,547.05,729.34c-230,95.28-409.06,47-409.06,47-105.19-254,15.55-545.52,269.54-650.72s545.53,15.55,650.72,269.54Z"/></g></g></svg>